<?xml version="1.0" encoding="utf-8" ?>
<svg baseProfile="full" height="10.0" version="1.1" width="40.0" xmlns="http://www.w3.org/2000/svg" xmlns:ev="http://www.w3.org/2001/xml-events" xmlns:xlink="http://www.w3.org/1999/xlink"><defs><pattern height="20" patternUnits="userSpaceOnUse" width="20"><rect fill="red" height="10" width="10" x="5" y="5" /></pattern></defs><rect fill="white" height="10.0" opacity="0.3" stroke="black" stroke-width="1.0" width="10.0" x="0.0" y="0" /><text font-size="200" x="5.0" y="410.0">L2</text><rect fill="white" height="10.0" opacity="0.3" stroke="black" stroke-width="1.0" width="10.0" x="20.0" y="0" /><text font-size="200" x="25.0" y="410.0">L1</text><line opacity="0.3" stroke="blue" stroke-width="0.07" x1="21.0" x2="21.0" y1="0.0" y2="10.0" /><line opacity="0.3" stroke="blue" stroke-width="0.07" x1="21.4" x2="21.4" y1="0.0" y2="10.0" /><line opacity="0.3" stroke="blue" stroke-width="0.07" x1="21.8" x2="21.8" y1="0.0" y2="10.0" /><line opacity="0.3" stroke="blue" stroke-width="0.07" x1="22.2" x2="22.2" y1="0.0" y2="10.0" /><line opacity="0.3" stroke="blue" stroke-width="0.07" x1="22.6" x2="22.6" y1="0.0" y2="10.0" /><line opacity="0.3" stroke="blue" stroke-width="0.07" x1="23.6" x2="23.6" y1="0.0" y2="10.0" /><line opacity="0.3" stroke="blue" stroke-width="0.07" x1="24.0" x2="24.0" y1="0.0" y2="10.0" /><line opacity="0.3" stroke="blue" stroke-width="0.07" x1="24.4" x2="24.4" y1="0.0" y2="10.0" /><line opacity="0.3" stroke="blue" stroke-width="0.07" x1="24.8" x2="24.8" y1="0.0" y2="10.0" /><line opacity="0.3" stroke="blue" stroke-width="0.07" x1="25.2" x2="25.2" y1="0.0" y2="10.0" /><line opacity="0.3" stroke="blue" stroke-width="0.07" x1="26.2" x2="26.2" y1="0.0" y2="10.0" /><line opacity="0.3" stroke="blue" stroke-width="0.07" x1="26.6" x2="26.6" y1="0.0" y2="10.0" /><line opacity="0.3" stroke="blue" stroke-width="0.07" x1="27.0" x2="27.0" y1="0.0" y2="10.0" /><line opacity="0.3" stroke="blue" stroke-width="0.07" x1="27.4" x2="27.4" y1="0.0" y2="10.0" /><line opacity="0.3" stroke="blue" stroke-width="0.07" x1="27.8" x2="27.8" y1="0.0" y2="10.0" /><line opacity="0.3" stroke="blue" stroke-width="0.07" x1="28.8" x2="28.8" y1="0.0" y2="10.0" /><line opacity="0.3" stroke="blue" stroke-width="0.07" x1="29.2" x2="29.2" y1="0.0" y2="10.0" /><line opacity="0.3" stroke="blue" stroke-width="0.07" x1="29.6" x2="29.6" y1="0.0" y2="10.0" /><line opacity="0.3" stroke="blue" stroke-width="0.07" x1="0.0" x2="10.0" y1="0.5" y2="0.5" /><line opacity="0.3" stroke="blue" stroke-width="0.07" x1="0.0" x2="10.0" y1="1.0" y2="1.0" /><line opacity="0.3" stroke="blue" stroke-width="0.07" x1="0.0" x2="10.0" y1="2.0" y2="2.0" /><line opacity="0.3" stroke="blue" stroke-width="0.07" x1="0.0" x2="10.0" y1="2.5" y2="2.5" /><line opacity="0.3" stroke="blue" stroke-width="0.07" x1="0.0" x2="10.0" y1="3.5" y2="3.5" /><line opacity="0.3" stroke="blue" stroke-width="0.07" x1="0.0" x2="10.0" y1="4.0" y2="4.0" /><line opacity="0.3" stroke="blue" stroke-width="0.07" x1="0.0" x2="10.0" y1="4.5" y2="4.5" /><line opacity="0.3" stroke="blue" stroke-width="0.07" x1="0.0" x2="10.0" y1="5.5" y2="5.5" /><line opacity="0.3" stroke="blue" stroke-width="0.07" x1="0.0" x2="10.0" y1="6.0" y2="6.0" /><line opacity="0.3" stroke="blue" stroke-width="0.07" x1="0.0" x2="10.0" y1="6.5" y2="6.5" /><line opacity="0.3" stroke="blue" stroke-width="0.07" x1="0.0" x2="10.0" y1="7.5" y2="7.5" /><line opacity="0.3" stroke="blue" stroke-width="0.07" x1="0.0" x2="10.0" y1="8.0" y2="8.0" /><line opacity="0.3" stroke="blue" stroke-width="0.07" x1="4.5" x2="10.0" y1="5.0" y2="5.0" /><line opacity="0.3" stroke="blue" stroke-width="0.07" x1="4.5" x2="10.0" y1="7.0" y2="7.0" /><line opacity="0.3" stroke="blue" stroke-width="0.07" x1="4.5" x2="10.0" y1="8.5" y2="8.5" /><line opacity="0.3" stroke="blue" stroke-width="0.07" x1="4.5" x2="10.0" y1="9.0" y2="9.0" /><rect fill="orange" fill-opacity="1" height="0.1" stroke="black" stroke-width="0.07" width="0.2" x="0.0" y="7.95" /><rect fill="orange" fill-opacity="1" height="0.1" stroke="black" stroke-width="0.07" width="0.2" x="9.8" y="5.95" /><rect fill="orange" fill-opacity="1" height="0.1" stroke="black" stroke-width="0.07" width="0.2" x="0.0" y="7.45" /><rect fill="orange" fill-opacity="1" height="0.1" stroke="black" stroke-width="0.07" width="0.2" x="9.8" y="6.95" /><rect fill="orange" fill-opacity="1" height="0.1" stroke="black" stroke-width="0.07" width="0.2" x="0.0" y="6.45" /><rect fill="orange" fill-opacity="1" height="0.1" stroke="black" stroke-width="0.07" width="0.2" x="9.8" y="7.45" /><rect fill="red" fill-opacity="0.1" height="0.1" stroke="black" stroke-width="0.07" width="0.1" x="21.75" y="2.45" /><rect fill="red" fill-opacity="0.1" height="0.1" stroke="black" stroke-width="0.07" width="0.1" x="21.75" y="3.95" /><rect fill="red" fill-opacity="0.1" height="0.1" stroke="black" stroke-width="0.07" width="0.1" x="23.55" y="1.45" /><rect fill="red" fill-opacity="0.1" height="0.1" stroke="black" stroke-width="0.07" width="0.1" x="23.55" y="2.95" /><rect fill="red" fill-opacity="0.1" height="0.1" stroke="black" stroke-width="0.07" width="0.1" x="23.55" y="4.45" /><rect fill="red" fill-opacity="0.1" height="0.1" stroke="black" stroke-width="0.07" width="0.0" x="25.15" y="2.45" /><rect fill="red" fill-opacity="0.1" height="0.1" stroke="black" stroke-width="0.07" width="0.0" x="25.25" y="3.95" /><rect fill="red" fill-opacity="0.1" height="3.1" stroke="black" stroke-width="0.07" width="1.9" x="27.35" y="1.95" /><rect fill="red" fill-opacity="0.1" height="0.1" stroke="black" stroke-width="0.07" width="0.1" x="1.75" y="2.45" /><rect fill="red" fill-opacity="0.1" height="0.1" stroke="black" stroke-width="0.07" width="0.1" x="1.75" y="3.95" /><rect fill="red" fill-opacity="0.1" height="0.1" stroke="black" stroke-width="0.07" width="0.1" x="3.55" y="1.45" /><rect fill="red" fill-opacity="0.1" height="0.1" stroke="black" stroke-width="0.07" width="0.1" x="3.55" y="2.95" /><rect fill="red" fill-opacity="0.1" height="0.1" stroke="black" stroke-width="0.07" width="0.1" x="3.55" y="4.45" /><rect fill="red" fill-opacity="0.1" height="0.1" stroke="black" stroke-width="0.07" width="0.0" x="5.15" y="2.45" /><rect fill="red" fill-opacity="0.1" height="0.1" stroke="black" stroke-width="0.07" width="0.0" x="5.25" y="3.95" /><rect fill="red" fill-opacity="0.1" height="3.05" stroke="black" stroke-width="0.07" width="1.95" x="2.55" y="5.95" /><rect fill="red" fill-opacity="0.1" height="3.1" stroke="black" stroke-width="0.07" width="1.9" x="7.35" y="1.95" /></svg>