<?xml version="1.0" encoding="utf-8" ?>
<svg baseProfile="full" height="10.0" version="1.1" width="20.1333333333" xmlns="http://www.w3.org/2000/svg" xmlns:ev="http://www.w3.org/2001/xml-events" xmlns:xlink="http://www.w3.org/1999/xlink"><defs><pattern height="20" patternUnits="userSpaceOnUse" width="20"><rect fill="red" height="10" width="10" x="5" y="5" /></pattern></defs><rect fill="white" height="10.0" opacity="0.3" stroke="black" stroke-width="0.0033333333333333335" width="10.0" x="0.0" y="0" /><text font-size="1.3333333333333335" x="5.0" y="12.6666666667">L2</text><rect fill="white" height="10.0" opacity="0.3" stroke="black" stroke-width="0.0033333333333333335" width="10.0" x="10.0666666667" y="0" /><text font-size="1.3333333333333335" x="15.0666666667" y="12.6666666667">L1</text><line opacity="0.3" stroke="blue" stroke-width="0.0004666666666666667" x1="11.0666666667" x2="11.0666666667" y1="0.0" y2="10.0" /><line opacity="0.3" stroke="blue" stroke-width="0.0004666666666666667" x1="11.4666666667" x2="11.4666666667" y1="0.0" y2="10.0" /><line opacity="0.3" stroke="blue" stroke-width="0.0004666666666666667" x1="11.8666666667" x2="11.8666666667" y1="0.0" y2="10.0" /><line opacity="0.3" stroke="blue" stroke-width="0.0004666666666666667" x1="12.2666666667" x2="12.2666666667" y1="0.0" y2="10.0" /><line opacity="0.3" stroke="blue" stroke-width="0.0004666666666666667" x1="12.6666666667" x2="12.6666666667" y1="0.0" y2="10.0" /><line opacity="0.3" stroke="blue" stroke-width="0.0004666666666666667" x1="13.6666666667" x2="13.6666666667" y1="0.0" y2="10.0" /><line opacity="0.3" stroke="blue" stroke-width="0.0004666666666666667" x1="14.0666666667" x2="14.0666666667" y1="0.0" y2="10.0" /><line opacity="0.3" stroke="blue" stroke-width="0.0004666666666666667" x1="14.4666666667" x2="14.4666666667" y1="0.0" y2="10.0" /><line opacity="0.3" stroke="blue" stroke-width="0.0004666666666666667" x1="14.8666666667" x2="14.8666666667" y1="0.0" y2="10.0" /><line opacity="0.3" stroke="blue" stroke-width="0.0004666666666666667" x1="15.2666666667" x2="15.2666666667" y1="0.0" y2="10.0" /><line opacity="0.3" stroke="blue" stroke-width="0.0004666666666666667" x1="16.2666666667" x2="16.2666666667" y1="0.0" y2="10.0" /><line opacity="0.3" stroke="blue" stroke-width="0.0004666666666666667" x1="16.6666666667" x2="16.6666666667" y1="0.0" y2="10.0" /><line opacity="0.3" stroke="blue" stroke-width="0.0004666666666666667" x1="17.0666666667" x2="17.0666666667" y1="0.0" y2="10.0" /><line opacity="0.3" stroke="blue" stroke-width="0.0004666666666666667" x1="17.4666666667" x2="17.4666666667" y1="0.0" y2="10.0" /><line opacity="0.3" stroke="blue" stroke-width="0.0004666666666666667" x1="17.8666666667" x2="17.8666666667" y1="0.0" y2="10.0" /><line opacity="0.3" stroke="blue" stroke-width="0.0004666666666666667" x1="18.8666666667" x2="18.8666666667" y1="0.0" y2="10.0" /><line opacity="0.3" stroke="blue" stroke-width="0.0004666666666666667" x1="19.2666666667" x2="19.2666666667" y1="0.0" y2="10.0" /><line opacity="0.3" stroke="blue" stroke-width="0.0004666666666666667" x1="19.6666666667" x2="19.6666666667" y1="0.0" y2="10.0" /><line opacity="0.3" stroke="blue" stroke-width="0.0004666666666666667" x1="0.0" x2="10.0" y1="0.5" y2="0.5" /><line opacity="0.3" stroke="blue" stroke-width="0.0004666666666666667" x1="0.0" x2="10.0" y1="1.0" y2="1.0" /><line opacity="0.3" stroke="blue" stroke-width="0.0004666666666666667" x1="0.0" x2="10.0" y1="2.0" y2="2.0" /><line opacity="0.3" stroke="blue" stroke-width="0.0004666666666666667" x1="0.0" x2="10.0" y1="2.5" y2="2.5" /><line opacity="0.3" stroke="blue" stroke-width="0.0004666666666666667" x1="0.0" x2="10.0" y1="3.5" y2="3.5" /><line opacity="0.3" stroke="blue" stroke-width="0.0004666666666666667" x1="0.0" x2="10.0" y1="4.0" y2="4.0" /><line opacity="0.3" stroke="blue" stroke-width="0.0004666666666666667" x1="0.0" x2="10.0" y1="4.5" y2="4.5" /><line opacity="0.3" stroke="blue" stroke-width="0.0004666666666666667" x1="0.0" x2="10.0" y1="5.5" y2="5.5" /><line opacity="0.3" stroke="blue" stroke-width="0.0004666666666666667" x1="0.0" x2="10.0" y1="6.0" y2="6.0" /><line opacity="0.3" stroke="blue" stroke-width="0.0004666666666666667" x1="0.0" x2="10.0" y1="6.5" y2="6.5" /><line opacity="0.3" stroke="blue" stroke-width="0.0004666666666666667" x1="0.0" x2="10.0" y1="7.5" y2="7.5" /><line opacity="0.3" stroke="blue" stroke-width="0.0004666666666666667" x1="0.0" x2="10.0" y1="8.0" y2="8.0" /><line opacity="0.3" stroke="blue" stroke-width="0.0004666666666666667" x1="4.5" x2="10.0" y1="5.0" y2="5.0" /><line opacity="0.3" stroke="blue" stroke-width="0.0004666666666666667" x1="4.5" x2="10.0" y1="7.0" y2="7.0" /><line opacity="0.3" stroke="blue" stroke-width="0.0004666666666666667" x1="4.5" x2="10.0" y1="8.5" y2="8.5" /><line opacity="0.3" stroke="blue" stroke-width="0.0004666666666666667" x1="4.5" x2="10.0" y1="9.0" y2="9.0" /><rect fill="orange" fill-opacity="1" height="0.1" stroke="black" stroke-width="0.0004666666666666667" width="0.2" x="0.0" y="7.95" /><rect fill="orange" fill-opacity="1" height="0.1" stroke="black" stroke-width="0.0004666666666666667" width="0.2" x="9.8" y="5.95" /><rect fill="orange" fill-opacity="1" height="0.1" stroke="black" stroke-width="0.0004666666666666667" width="0.2" x="0.0" y="7.45" /><rect fill="orange" fill-opacity="1" height="0.1" stroke="black" stroke-width="0.0004666666666666667" width="0.2" x="9.8" y="6.95" /><rect fill="orange" fill-opacity="1" height="0.1" stroke="black" stroke-width="0.0004666666666666667" width="0.2" x="0.0" y="6.45" /><rect fill="orange" fill-opacity="1" height="0.1" stroke="black" stroke-width="0.0004666666666666667" width="0.2" x="9.8" y="7.45" /><rect fill="red" fill-opacity="0.1" height="0.1" stroke="black" stroke-width="0.0004666666666666667" width="0.1" x="11.8166666667" y="2.45" /><rect fill="red" fill-opacity="0.1" height="0.1" stroke="black" stroke-width="0.0004666666666666667" width="0.1" x="11.8166666667" y="3.95" /><rect fill="red" fill-opacity="0.1" height="0.1" stroke="black" stroke-width="0.0004666666666666667" width="0.1" x="13.6166666667" y="1.45" /><rect fill="red" fill-opacity="0.1" height="0.1" stroke="black" stroke-width="0.0004666666666666667" width="0.1" x="13.6166666667" y="2.95" /><rect fill="red" fill-opacity="0.1" height="0.1" stroke="black" stroke-width="0.0004666666666666667" width="0.1" x="13.6166666667" y="4.45" /><rect fill="red" fill-opacity="0.1" height="0.1" stroke="black" stroke-width="0.0004666666666666667" width="0.0" x="15.2166666667" y="2.45" /><rect fill="red" fill-opacity="0.1" height="0.1" stroke="black" stroke-width="0.0004666666666666667" width="0.0" x="15.3166666667" y="3.95" /><rect fill="red" fill-opacity="0.1" height="3.1" stroke="black" stroke-width="0.0004666666666666667" width="1.9" x="17.4166666667" y="1.95" /><rect fill="red" fill-opacity="0.1" height="0.1" stroke="black" stroke-width="0.0004666666666666667" width="0.1" x="1.75" y="2.45" /><rect fill="red" fill-opacity="0.1" height="0.1" stroke="black" stroke-width="0.0004666666666666667" width="0.1" x="1.75" y="3.95" /><rect fill="red" fill-opacity="0.1" height="0.1" stroke="black" stroke-width="0.0004666666666666667" width="0.1" x="3.55" y="1.45" /><rect fill="red" fill-opacity="0.1" height="0.1" stroke="black" stroke-width="0.0004666666666666667" width="0.1" x="3.55" y="2.95" /><rect fill="red" fill-opacity="0.1" height="0.1" stroke="black" stroke-width="0.0004666666666666667" width="0.1" x="3.55" y="4.45" /><rect fill="red" fill-opacity="0.1" height="0.1" stroke="black" stroke-width="0.0004666666666666667" width="0.0" x="5.15" y="2.45" /><rect fill="red" fill-opacity="0.1" height="0.1" stroke="black" stroke-width="0.0004666666666666667" width="0.0" x="5.25" y="3.95" /><rect fill="red" fill-opacity="0.1" height="3.05" stroke="black" stroke-width="0.0004666666666666667" width="1.95" x="2.55" y="5.95" /><rect fill="red" fill-opacity="0.1" height="3.1" stroke="black" stroke-width="0.0004666666666666667" width="1.9" x="7.35" y="1.95" /></svg>