<?xml version="1.0" encoding="utf-8" ?>
<svg baseProfile="full" height="10.0" version="1.1" width="20.1333333333" xmlns="http://www.w3.org/2000/svg" xmlns:ev="http://www.w3.org/2001/xml-events" xmlns:xlink="http://www.w3.org/1999/xlink"><defs><pattern height="20" patternUnits="userSpaceOnUse" width="20"><rect fill="red" height="10" width="10" x="5" y="5" /></pattern></defs><rect fill="white" height="10.0" opacity="0.3" stroke="black" stroke-width="0.040824829046386304" width="10.0" x="0.0" y="0" /><text font-size="1.3333333333333335" x="5.0" y="12.6666666667">L1</text><rect fill="white" height="10.0" opacity="0.3" stroke="black" stroke-width="0.040824829046386304" width="10.0" x="10.0666666667" y="0" /><text font-size="1.3333333333333335" x="15.0666666667" y="12.6666666667">L2</text><line opacity="0.3" stroke="blue" stroke-width="0.005715476066494083" x1="1.0" x2="1.0" y1="0.0" y2="10.0" /><line opacity="0.3" stroke="blue" stroke-width="0.005715476066494083" x1="1.4" x2="1.4" y1="0.0" y2="10.0" /><line opacity="0.3" stroke="blue" stroke-width="0.005715476066494083" x1="1.8" x2="1.8" y1="0.0" y2="10.0" /><line opacity="0.3" stroke="blue" stroke-width="0.005715476066494083" x1="2.2" x2="2.2" y1="0.0" y2="10.0" /><line opacity="0.3" stroke="blue" stroke-width="0.005715476066494083" x1="2.6" x2="2.6" y1="0.0" y2="10.0" /><line opacity="0.3" stroke="blue" stroke-width="0.005715476066494083" x1="3.6" x2="3.6" y1="0.0" y2="10.0" /><line opacity="0.3" stroke="blue" stroke-width="0.005715476066494083" x1="4.0" x2="4.0" y1="0.0" y2="10.0" /><line opacity="0.3" stroke="blue" stroke-width="0.005715476066494083" x1="4.4" x2="4.4" y1="0.0" y2="10.0" /><line opacity="0.3" stroke="blue" stroke-width="0.005715476066494083" x1="4.8" x2="4.8" y1="0.0" y2="10.0" /><line opacity="0.3" stroke="blue" stroke-width="0.005715476066494083" x1="5.2" x2="5.2" y1="0.0" y2="10.0" /><line opacity="0.3" stroke="blue" stroke-width="0.005715476066494083" x1="6.2" x2="6.2" y1="0.0" y2="10.0" /><line opacity="0.3" stroke="blue" stroke-width="0.005715476066494083" x1="6.6" x2="6.6" y1="0.0" y2="10.0" /><line opacity="0.3" stroke="blue" stroke-width="0.005715476066494083" x1="7.0" x2="7.0" y1="0.0" y2="10.0" /><line opacity="0.3" stroke="blue" stroke-width="0.005715476066494083" x1="7.4" x2="7.4" y1="0.0" y2="10.0" /><line opacity="0.3" stroke="blue" stroke-width="0.005715476066494083" x1="7.8" x2="7.8" y1="0.0" y2="10.0" /><line opacity="0.3" stroke="blue" stroke-width="0.005715476066494083" x1="8.8" x2="8.8" y1="0.0" y2="10.0" /><line opacity="0.3" stroke="blue" stroke-width="0.005715476066494083" x1="9.2" x2="9.2" y1="0.0" y2="10.0" /><line opacity="0.3" stroke="blue" stroke-width="0.005715476066494083" x1="9.6" x2="9.6" y1="0.0" y2="10.0" /><line opacity="0.3" stroke="blue" stroke-width="0.005715476066494083" x1="10.0666666667" x2="20.0666666667" y1="0.5" y2="0.5" /><line opacity="0.3" stroke="blue" stroke-width="0.005715476066494083" x1="10.0666666667" x2="20.0666666667" y1="1.0" y2="1.0" /><line opacity="0.3" stroke="blue" stroke-width="0.005715476066494083" x1="10.0666666667" x2="20.0666666667" y1="2.0" y2="2.0" /><line opacity="0.3" stroke="blue" stroke-width="0.005715476066494083" x1="10.0666666667" x2="20.0666666667" y1="2.5" y2="2.5" /><line opacity="0.3" stroke="blue" stroke-width="0.005715476066494083" x1="10.0666666667" x2="20.0666666667" y1="3.5" y2="3.5" /><line opacity="0.3" stroke="blue" stroke-width="0.005715476066494083" x1="10.0666666667" x2="20.0666666667" y1="4.0" y2="4.0" /><line opacity="0.3" stroke="blue" stroke-width="0.005715476066494083" x1="10.0666666667" x2="20.0666666667" y1="4.5" y2="4.5" /><line opacity="0.3" stroke="blue" stroke-width="0.005715476066494083" x1="10.0666666667" x2="20.0666666667" y1="5.5" y2="5.5" /><line opacity="0.3" stroke="blue" stroke-width="0.005715476066494083" x1="10.0666666667" x2="20.0666666667" y1="6.0" y2="6.0" /><line opacity="0.3" stroke="blue" stroke-width="0.005715476066494083" x1="10.0666666667" x2="20.0666666667" y1="6.5" y2="6.5" /><line opacity="0.3" stroke="blue" stroke-width="0.005715476066494083" x1="10.0666666667" x2="20.0666666667" y1="7.5" y2="7.5" /><line opacity="0.3" stroke="blue" stroke-width="0.005715476066494083" x1="10.0666666667" x2="20.0666666667" y1="8.0" y2="8.0" /><line opacity="0.3" stroke="blue" stroke-width="0.005715476066494083" x1="14.5666666667" x2="20.0666666667" y1="5.0" y2="5.0" /><line opacity="0.3" stroke="blue" stroke-width="0.005715476066494083" x1="14.5666666667" x2="20.0666666667" y1="7.0" y2="7.0" /><line opacity="0.3" stroke="blue" stroke-width="0.005715476066494083" x1="14.5666666667" x2="20.0666666667" y1="8.5" y2="8.5" /><line opacity="0.3" stroke="blue" stroke-width="0.005715476066494083" x1="14.5666666667" x2="20.0666666667" y1="9.0" y2="9.0" /><rect fill="orange" fill-opacity="1" height="0.1" stroke="black" stroke-width="0.005715476066494083" width="0.2" x="10.0666666667" y="7.95" /><rect fill="orange" fill-opacity="1" height="0.1" stroke="black" stroke-width="0.005715476066494083" width="0.2" x="19.8666666667" y="5.95" /><rect fill="orange" fill-opacity="1" height="0.1" stroke="black" stroke-width="0.005715476066494083" width="0.2" x="10.0666666667" y="7.45" /><rect fill="orange" fill-opacity="1" height="0.1" stroke="black" stroke-width="0.005715476066494083" width="0.2" x="19.8666666667" y="6.95" /><rect fill="orange" fill-opacity="1" height="0.1" stroke="black" stroke-width="0.005715476066494083" width="0.2" x="10.0666666667" y="6.45" /><rect fill="orange" fill-opacity="1" height="0.1" stroke="black" stroke-width="0.005715476066494083" width="0.2" x="19.8666666667" y="7.45" /><rect fill="red" fill-opacity="0.1" height="0.1" stroke="black" stroke-width="0.005715476066494083" width="0.1" x="1.75" y="2.45" /><rect fill="red" fill-opacity="0.1" height="0.1" stroke="black" stroke-width="0.005715476066494083" width="0.1" x="1.75" y="3.95" /><rect fill="red" fill-opacity="0.1" height="0.1" stroke="black" stroke-width="0.005715476066494083" width="0.1" x="3.55" y="1.45" /><rect fill="red" fill-opacity="0.1" height="0.1" stroke="black" stroke-width="0.005715476066494083" width="0.1" x="3.55" y="2.95" /><rect fill="red" fill-opacity="0.1" height="0.1" stroke="black" stroke-width="0.005715476066494083" width="0.1" x="3.55" y="4.45" /><rect fill="red" fill-opacity="0.1" height="0.1" stroke="black" stroke-width="0.005715476066494083" width="0.0" x="5.15" y="2.45" /><rect fill="red" fill-opacity="0.1" height="0.1" stroke="black" stroke-width="0.005715476066494083" width="0.0" x="5.25" y="3.95" /><rect fill="red" fill-opacity="0.1" height="3.1" stroke="black" stroke-width="0.005715476066494083" width="1.9" x="7.35" y="1.95" /><rect fill="red" fill-opacity="0.1" height="0.1" stroke="black" stroke-width="0.005715476066494083" width="0.1" x="11.8166666667" y="2.45" /><rect fill="red" fill-opacity="0.1" height="0.1" stroke="black" stroke-width="0.005715476066494083" width="0.1" x="11.8166666667" y="3.95" /><rect fill="red" fill-opacity="0.1" height="0.1" stroke="black" stroke-width="0.005715476066494083" width="0.1" x="13.6166666667" y="1.45" /><rect fill="red" fill-opacity="0.1" height="0.1" stroke="black" stroke-width="0.005715476066494083" width="0.1" x="13.6166666667" y="2.95" /><rect fill="red" fill-opacity="0.1" height="0.1" stroke="black" stroke-width="0.005715476066494083" width="0.1" x="13.6166666667" y="4.45" /><rect fill="red" fill-opacity="0.1" height="0.1" stroke="black" stroke-width="0.005715476066494083" width="0.0" x="15.2166666667" y="2.45" /><rect fill="red" fill-opacity="0.1" height="0.1" stroke="black" stroke-width="0.005715476066494083" width="0.0" x="15.3166666667" y="3.95" /><rect fill="red" fill-opacity="0.1" height="3.05" stroke="black" stroke-width="0.005715476066494083" width="1.95" x="12.6166666667" y="5.95" /><rect fill="red" fill-opacity="0.1" height="3.1" stroke="black" stroke-width="0.005715476066494083" width="1.9" x="17.4166666667" y="1.95" /></svg>