<?xml version="1.0" standalone="no" ?>
<!DOCTYPE svg PUBLIC "-//W3C//DTD SVG 1.1//EN" "http://www.w3.org/Graphics/SVG/1.1/DTD/svg11.dtd">
<svg width="806000px" height="128445px" xmlns="http://www.w3.org/2000/svg" version="1.1" >
	<polygon points="2000,126445 2000,-6000 52375,-6000 52375,126445 " fill="rgb(255,255,255)" stroke-width="100" stroke="rgb(0,0,0)" />
	<text x="27188" y="127445" fill="transparent" font-size="500" font-family="Verdana" >0</text>
	<polygon points="54375,126445 54375,-6000 104750,-6000 104750,126445 " fill="rgb(255,255,255)" stroke-width="100" stroke="rgb(0,0,0)" />
	<text x="79563" y="127445" fill="transparent" font-size="500" font-family="Verdana" >1</text>
	<polygon points="106750,126445 106750,-6000 157125,-6000 157125,126445 " fill="rgb(255,255,255)" stroke-width="100" stroke="rgb(0,0,0)" />
	<text x="131938" y="127445" fill="transparent" font-size="500" font-family="Verdana" >2</text>
	<polygon points="159125,126445 159125,-6000 209500,-6000 209500,126445 " fill="rgb(255,255,255)" stroke-width="100" stroke="rgb(0,0,0)" />
	<text x="184313" y="127445" fill="transparent" font-size="500" font-family="Verdana" >3</text>
	<polygon points="211500,126445 211500,-6000 261875,-6000 261875,126445 " fill="rgb(255,255,255)" stroke-width="100" stroke="rgb(0,0,0)" />
	<text x="236688" y="127445" fill="transparent" font-size="500" font-family="Verdana" >4</text>
	<polygon points="263875,126445 263875,-6000 314250,-6000 314250,126445 " fill="rgb(255,255,255)" stroke-width="100" stroke="rgb(0,0,0)" />
	<text x="289063" y="127445" fill="transparent" font-size="500" font-family="Verdana" >5</text>
	<polygon points="316250,126445 316250,-6000 366625,-6000 366625,126445 " fill="rgb(255,255,255)" stroke-width="100" stroke="rgb(0,0,0)" />
	<text x="341438" y="127445" fill="transparent" font-size="500" font-family="Verdana" >6</text>
	<polygon points="368625,126445 368625,-6000 419000,-6000 419000,126445 " fill="rgb(255,255,255)" stroke-width="100" stroke="rgb(0,0,0)" />
	<text x="393813" y="127445" fill="transparent" font-size="500" font-family="Verdana" >7</text>
	<polygon points="421000,126445 421000,-6000 471375,-6000 471375,126445 " fill="rgb(255,255,255)" stroke-width="100" stroke="rgb(0,0,0)" />
	<text x="446188" y="127445" fill="transparent" font-size="500" font-family="Verdana" >8</text>
	<polygon points="473375,126445 473375,-6000 523750,-6000 523750,126445 " fill="rgb(255,255,255)" stroke-width="100" stroke="rgb(0,0,0)" />
	<text x="498563" y="127445" fill="transparent" font-size="500" font-family="Verdana" >9</text>
	<polygon points="525750,126445 525750,-6000 576125,-6000 576125,126445 " fill="rgb(255,255,255)" stroke-width="100" stroke="rgb(0,0,0)" />
	<text x="550938" y="127445" fill="transparent" font-size="500" font-family="Verdana" >10</text>
	<polygon points="578125,126445 578125,-6000 628500,-6000 628500,126445 " fill="rgb(255,255,255)" stroke-width="100" stroke="rgb(0,0,0)" />
	<text x="603313" y="127445" fill="transparent" font-size="500" font-family="Verdana" >11</text>
	<polygon points="630500,126445 630500,-6000 680875,-6000 680875,126445 " fill="rgb(255,255,255)" stroke-width="100" stroke="rgb(0,0,0)" />
	<text x="655688" y="127445" fill="transparent" font-size="500" font-family="Verdana" >12</text>
	<polygon points="682875,126445 682875,-6000 733250,-6000 733250,126445 " fill="rgb(255,255,255)" stroke-width="100" stroke="rgb(0,0,0)" />
	<text x="708063" y="127445" fill="transparent" font-size="500" font-family="Verdana" >13</text>
	<polygon points="735250,126445 735250,-6000 785625,-6000 785625,126445 " fill="rgb(255,255,255)" stroke-width="100" stroke="rgb(0,0,0)" />
	<text x="760438" y="127445" fill="transparent" font-size="500" font-family="Verdana" >14</text>
	<polygon points="787625,126445 787625,-6000 838000,-6000 838000,126445 " fill="rgb(255,255,255)" stroke-width="100" stroke="rgb(0,0,0)" />
	<text x="812813" y="127445" fill="transparent" font-size="500" font-family="Verdana" >15</text>
	<circle cx="52335" cy="123880" r="200" fill="rgb(0,0,255)" stroke-width="3" stroke="rgb(0,0,0)" />
	<circle cx="14115" cy="45000" r="200" fill="rgb(0,0,255)" stroke-width="3" stroke="rgb(0,0,0)" />
	<circle cx="2055" cy="360" r="200" fill="rgb(0,0,255)" stroke-width="3" stroke="rgb(0,0,0)" />
	<circle cx="14115" cy="45000" r="200" fill="rgb(255,0,0)" stroke-width="3" stroke="rgb(0,0,0)" />
	<polygon points="51395,125240 51395,123240 53395,123240 53395,125240 " fill="rgb(255,255,0)" stroke-width="1" stroke="rgb(0,0,0)" />
	<polygon points="51395,123240 51395,121240 53395,121240 53395,123240 " fill="rgb(255,255,0)" stroke-width="1" stroke="rgb(0,0,0)" />
	<polygon points="51395,121240 51395,119240 53395,119240 53395,121240 " fill="rgb(255,255,0)" stroke-width="1" stroke="rgb(0,0,0)" />
	<polygon points="51395,119240 51395,117240 53395,117240 53395,119240 " fill="rgb(255,255,0)" stroke-width="1" stroke="rgb(0,0,0)" />
	<polygon points="51395,117240 51395,115240 53395,115240 53395,117240 " fill="rgb(255,255,0)" stroke-width="1" stroke="rgb(0,0,0)" />
	<polygon points="51395,115240 51395,113240 53395,113240 53395,115240 " fill="rgb(255,255,0)" stroke-width="1" stroke="rgb(0,0,0)" />
	<polygon points="51395,113240 51395,111240 53395,111240 53395,113240 " fill="rgb(255,255,0)" stroke-width="1" stroke="rgb(0,0,0)" />
	<polygon points="51395,111240 51395,109240 53395,109240 53395,111240 " fill="rgb(255,255,0)" stroke-width="1" stroke="rgb(0,0,0)" />
	<polygon points="51395,109240 51395,107240 53395,107240 53395,109240 " fill="rgb(255,255,0)" stroke-width="1" stroke="rgb(0,0,0)" />
	<polygon points="51395,107240 51395,105240 53395,105240 53395,107240 " fill="rgb(255,255,0)" stroke-width="1" stroke="rgb(0,0,0)" />
	<polygon points="51395,105240 51395,103240 53395,103240 53395,105240 " fill="rgb(255,255,0)" stroke-width="1" stroke="rgb(0,0,0)" />
	<polygon points="51395,103240 51395,101240 53395,101240 53395,103240 " fill="rgb(255,255,0)" stroke-width="1" stroke="rgb(0,0,0)" />
	<polygon points="51395,101240 51395,99240 53395,99240 53395,101240 " fill="rgb(255,255,0)" stroke-width="1" stroke="rgb(0,0,0)" />
	<polygon points="51395,99240 51395,97240 53395,97240 53395,99240 " fill="rgb(255,255,0)" stroke-width="1" stroke="rgb(0,0,0)" />
	<polygon points="51395,97240 51395,95240 53395,95240 53395,97240 " fill="rgb(255,255,0)" stroke-width="1" stroke="rgb(0,0,0)" />
	<polygon points="51395,95240 51395,93240 53395,93240 53395,95240 " fill="rgb(255,255,0)" stroke-width="1" stroke="rgb(0,0,0)" />
	<polygon points="51395,93240 51395,91240 53395,91240 53395,93240 " fill="rgb(255,255,0)" stroke-width="1" stroke="rgb(0,0,0)" />
	<polygon points="51395,91240 51395,89240 53395,89240 53395,91240 " fill="rgb(255,255,0)" stroke-width="1" stroke="rgb(0,0,0)" />
	<polygon points="51395,89240 51395,87240 53395,87240 53395,89240 " fill="rgb(255,255,0)" stroke-width="1" stroke="rgb(0,0,0)" />
	<polygon points="51395,87240 51395,85240 53395,85240 53395,87240 " fill="rgb(255,255,0)" stroke-width="1" stroke="rgb(0,0,0)" />
	<polygon points="51395,85240 51395,83240 53395,83240 53395,85240 " fill="rgb(255,255,0)" stroke-width="1" stroke="rgb(0,0,0)" />
	<polygon points="51395,83240 51395,81240 53395,81240 53395,83240 " fill="rgb(255,255,0)" stroke-width="1" stroke="rgb(0,0,0)" />
	<polygon points="51395,81240 51395,79240 53395,79240 53395,81240 " fill="rgb(255,255,0)" stroke-width="1" stroke="rgb(0,0,0)" />
	<polygon points="51395,79240 51395,77240 53395,77240 53395,79240 " fill="rgb(255,255,0)" stroke-width="1" stroke="rgb(0,0,0)" />
	<polygon points="51395,77240 51395,75240 53395,75240 53395,77240 " fill="rgb(255,255,0)" stroke-width="1" stroke="rgb(0,0,0)" />
	<polygon points="51395,75240 51395,73240 53395,73240 53395,75240 " fill="rgb(255,255,0)" stroke-width="1" stroke="rgb(0,0,0)" />
	<polygon points="51395,73240 51395,71240 53395,71240 53395,73240 " fill="rgb(255,255,0)" stroke-width="1" stroke="rgb(0,0,0)" />
	<polygon points="51395,71240 51395,69240 53395,69240 53395,71240 " fill="rgb(255,255,0)" stroke-width="1" stroke="rgb(0,0,0)" />
	<polygon points="51395,69240 51395,67240 53395,67240 53395,69240 " fill="rgb(255,255,0)" stroke-width="1" stroke="rgb(0,0,0)" />
	<polygon points="51395,67240 51395,65240 53395,65240 53395,67240 " fill="rgb(255,255,0)" stroke-width="1" stroke="rgb(0,0,0)" />
	<polygon points="51395,65240 51395,63240 53395,63240 53395,65240 " fill="rgb(255,255,0)" stroke-width="1" stroke="rgb(0,0,0)" />
	<polygon points="51395,63240 51395,61240 53395,61240 53395,63240 " fill="rgb(255,255,0)" stroke-width="1" stroke="rgb(0,0,0)" />
	<polygon points="51395,61240 51395,59240 53395,59240 53395,61240 " fill="rgb(255,255,0)" stroke-width="1" stroke="rgb(0,0,0)" />
	<polygon points="51395,59240 51395,57240 53395,57240 53395,59240 " fill="rgb(255,255,0)" stroke-width="1" stroke="rgb(0,0,0)" />
	<polygon points="51395,57240 51395,55240 53395,55240 53395,57240 " fill="rgb(255,255,0)" stroke-width="1" stroke="rgb(0,0,0)" />
	<polygon points="51395,55240 51395,53240 53395,53240 53395,55240 " fill="rgb(255,255,0)" stroke-width="1" stroke="rgb(0,0,0)" />
	<polygon points="51395,53240 51395,51240 53395,51240 53395,53240 " fill="rgb(255,255,0)" stroke-width="1" stroke="rgb(0,0,0)" />
	<polygon points="51395,51240 51395,49240 53395,49240 53395,51240 " fill="rgb(255,255,0)" stroke-width="1" stroke="rgb(0,0,0)" />
	<polygon points="51395,49240 51395,47240 53395,47240 53395,49240 " fill="rgb(255,255,0)" stroke-width="1" stroke="rgb(0,0,0)" />
	<polygon points="51395,47240 51395,45240 53395,45240 53395,47240 " fill="rgb(255,255,0)" stroke-width="1" stroke="rgb(0,0,0)" />
	<polygon points="51395,45240 51395,43240 53395,43240 53395,45240 " fill="rgb(255,255,0)" stroke-width="1" stroke="rgb(0,0,0)" />
	<polygon points="13395,45240 13395,43240 15395,43240 15395,45240 " fill="rgb(255,255,0)" stroke-width="1" stroke="rgb(0,0,0)" />
	<polygon points="15395,45240 15395,43240 17395,43240 17395,45240 " fill="rgb(255,255,0)" stroke-width="1" stroke="rgb(0,0,0)" />
	<polygon points="17395,45240 17395,43240 19395,43240 19395,45240 " fill="rgb(255,255,0)" stroke-width="1" stroke="rgb(0,0,0)" />
	<polygon points="19395,45240 19395,43240 21395,43240 21395,45240 " fill="rgb(255,255,0)" stroke-width="1" stroke="rgb(0,0,0)" />
	<polygon points="21395,45240 21395,43240 23395,43240 23395,45240 " fill="rgb(255,255,0)" stroke-width="1" stroke="rgb(0,0,0)" />
	<polygon points="23395,45240 23395,43240 25395,43240 25395,45240 " fill="rgb(255,255,0)" stroke-width="1" stroke="rgb(0,0,0)" />
	<polygon points="25395,45240 25395,43240 27395,43240 27395,45240 " fill="rgb(255,255,0)" stroke-width="1" stroke="rgb(0,0,0)" />
	<polygon points="27395,45240 27395,43240 29395,43240 29395,45240 " fill="rgb(255,255,0)" stroke-width="1" stroke="rgb(0,0,0)" />
	<polygon points="29395,45240 29395,43240 31395,43240 31395,45240 " fill="rgb(255,255,0)" stroke-width="1" stroke="rgb(0,0,0)" />
	<polygon points="31395,45240 31395,43240 33395,43240 33395,45240 " fill="rgb(255,255,0)" stroke-width="1" stroke="rgb(0,0,0)" />
	<polygon points="33395,45240 33395,43240 35395,43240 35395,45240 " fill="rgb(255,255,0)" stroke-width="1" stroke="rgb(0,0,0)" />
	<polygon points="35395,45240 35395,43240 37395,43240 37395,45240 " fill="rgb(255,255,0)" stroke-width="1" stroke="rgb(0,0,0)" />
	<polygon points="37395,45240 37395,43240 39395,43240 39395,45240 " fill="rgb(255,255,0)" stroke-width="1" stroke="rgb(0,0,0)" />
	<polygon points="39395,45240 39395,43240 41395,43240 41395,45240 " fill="rgb(255,255,0)" stroke-width="1" stroke="rgb(0,0,0)" />
	<polygon points="41395,45240 41395,43240 43395,43240 43395,45240 " fill="rgb(255,255,0)" stroke-width="1" stroke="rgb(0,0,0)" />
	<polygon points="43395,45240 43395,43240 45395,43240 45395,45240 " fill="rgb(255,255,0)" stroke-width="1" stroke="rgb(0,0,0)" />
	<polygon points="45395,45240 45395,43240 47395,43240 47395,45240 " fill="rgb(255,255,0)" stroke-width="1" stroke="rgb(0,0,0)" />
	<polygon points="47395,45240 47395,43240 49395,43240 49395,45240 " fill="rgb(255,255,0)" stroke-width="1" stroke="rgb(0,0,0)" />
	<polygon points="49395,45240 49395,43240 51395,43240 51395,45240 " fill="rgb(255,255,0)" stroke-width="1" stroke="rgb(0,0,0)" />
	<polygon points="51395,45240 51395,43240 53395,43240 53395,45240 " fill="rgb(255,255,0)" stroke-width="1" stroke="rgb(0,0,0)" />
	<polygon points="13395,45240 13395,43240 15395,43240 15395,45240 " fill="rgb(255,255,0)" stroke-width="1" stroke="rgb(0,0,0)" />
	<polygon points="13395,45240 13395,43240 15395,43240 15395,45240 " fill="rgb(255,255,0)" stroke-width="1" stroke="rgb(0,0,0)" />
	<polygon points="1395,45240 1395,43240 3395,43240 3395,45240 " fill="rgb(255,255,0)" stroke-width="1" stroke="rgb(0,0,0)" />
	<polygon points="1395,43240 1395,41240 3395,41240 3395,43240 " fill="rgb(255,255,0)" stroke-width="1" stroke="rgb(0,0,0)" />
	<polygon points="1395,41240 1395,39240 3395,39240 3395,41240 " fill="rgb(255,255,0)" stroke-width="1" stroke="rgb(0,0,0)" />
	<polygon points="1395,39240 1395,37240 3395,37240 3395,39240 " fill="rgb(255,255,0)" stroke-width="1" stroke="rgb(0,0,0)" />
	<polygon points="1395,37240 1395,35240 3395,35240 3395,37240 " fill="rgb(255,255,0)" stroke-width="1" stroke="rgb(0,0,0)" />
	<polygon points="1395,35240 1395,33240 3395,33240 3395,35240 " fill="rgb(255,255,0)" stroke-width="1" stroke="rgb(0,0,0)" />
	<polygon points="1395,33240 1395,31240 3395,31240 3395,33240 " fill="rgb(255,255,0)" stroke-width="1" stroke="rgb(0,0,0)" />
	<polygon points="1395,31240 1395,29240 3395,29240 3395,31240 " fill="rgb(255,255,0)" stroke-width="1" stroke="rgb(0,0,0)" />
	<polygon points="1395,29240 1395,27240 3395,27240 3395,29240 " fill="rgb(255,255,0)" stroke-width="1" stroke="rgb(0,0,0)" />
	<polygon points="1395,27240 1395,25240 3395,25240 3395,27240 " fill="rgb(255,255,0)" stroke-width="1" stroke="rgb(0,0,0)" />
	<polygon points="1395,25240 1395,23240 3395,23240 3395,25240 " fill="rgb(255,255,0)" stroke-width="1" stroke="rgb(0,0,0)" />
	<polygon points="1395,23240 1395,21240 3395,21240 3395,23240 " fill="rgb(255,255,0)" stroke-width="1" stroke="rgb(0,0,0)" />
	<polygon points="1395,21240 1395,19240 3395,19240 3395,21240 " fill="rgb(255,255,0)" stroke-width="1" stroke="rgb(0,0,0)" />
	<polygon points="1395,19240 1395,17240 3395,17240 3395,19240 " fill="rgb(255,255,0)" stroke-width="1" stroke="rgb(0,0,0)" />
	<polygon points="1395,17240 1395,15240 3395,15240 3395,17240 " fill="rgb(255,255,0)" stroke-width="1" stroke="rgb(0,0,0)" />
	<polygon points="1395,15240 1395,13240 3395,13240 3395,15240 " fill="rgb(255,255,0)" stroke-width="1" stroke="rgb(0,0,0)" />
	<polygon points="1395,13240 1395,11240 3395,11240 3395,13240 " fill="rgb(255,255,0)" stroke-width="1" stroke="rgb(0,0,0)" />
	<polygon points="1395,11240 1395,9240 3395,9240 3395,11240 " fill="rgb(255,255,0)" stroke-width="1" stroke="rgb(0,0,0)" />
	<polygon points="1395,9240 1395,7240 3395,7240 3395,9240 " fill="rgb(255,255,0)" stroke-width="1" stroke="rgb(0,0,0)" />
	<polygon points="1395,7240 1395,5240 3395,5240 3395,7240 " fill="rgb(255,255,0)" stroke-width="1" stroke="rgb(0,0,0)" />
	<polygon points="1395,5240 1395,3240 3395,3240 3395,5240 " fill="rgb(255,255,0)" stroke-width="1" stroke="rgb(0,0,0)" />
	<polygon points="1395,3240 1395,1240 3395,1240 3395,3240 " fill="rgb(255,255,0)" stroke-width="1" stroke="rgb(0,0,0)" />
	<polygon points="1395,1955 1395,-45 3395,-45 3395,1955 " fill="rgb(255,255,0)" stroke-width="1" stroke="rgb(0,0,0)" />
	<polygon points="1395,45240 1395,43240 3395,43240 3395,45240 " fill="rgb(255,255,0)" stroke-width="1" stroke="rgb(0,0,0)" />
	<polygon points="3395,45240 3395,43240 5395,43240 5395,45240 " fill="rgb(255,255,0)" stroke-width="1" stroke="rgb(0,0,0)" />
	<polygon points="5395,45240 5395,43240 7395,43240 7395,45240 " fill="rgb(255,255,0)" stroke-width="1" stroke="rgb(0,0,0)" />
	<polygon points="7395,45240 7395,43240 9395,43240 9395,45240 " fill="rgb(255,255,0)" stroke-width="1" stroke="rgb(0,0,0)" />
	<polygon points="9395,45240 9395,43240 11395,43240 11395,45240 " fill="rgb(255,255,0)" stroke-width="1" stroke="rgb(0,0,0)" />
	<polygon points="11395,45240 11395,43240 13395,43240 13395,45240 " fill="rgb(255,255,0)" stroke-width="1" stroke="rgb(0,0,0)" />
	<polygon points="13395,45240 13395,43240 15395,43240 15395,45240 " fill="rgb(255,255,0)" stroke-width="1" stroke="rgb(0,0,0)" />
	<polygon points="52305,124445 52305,124075 52375,124075 52375,124445 " fill="rgb(255,165,0)" stroke-width="3" stroke="rgb(0,0,0)" />
	<polygon points="14090,44885 14090,44515 14160,44515 14160,44885 " fill="rgb(255,165,0)" stroke-width="3" stroke="rgb(0,0,0)" />
	<polygon points="2000,300 2000,0 2070,0 2070,300 " fill="rgb(255,165,0)" stroke-width="3" stroke="rgb(0,0,0)" />
</svg>
