<?xml version="1.0" standalone="no" ?>
<!DOCTYPE svg PUBLIC "-//W3C//DTD SVG 1.1//EN" "http://www.w3.org/Graphics/SVG/1.1/DTD/svg11.dtd">
<svg width="796960px" height="98655px" xmlns="http://www.w3.org/2000/svg" version="1.1" >
	<polygon points="2000,96655 2000,-6000 51810,-6000 51810,96655 " fill="rgb(255,255,255)" stroke-width="100" stroke="rgb(0,0,0)" />
	<text x="26905" y="97655" fill="transparent" font-size="500" font-family="Verdana" >0</text>
	<polygon points="53810,96655 53810,-6000 103620,-6000 103620,96655 " fill="rgb(255,255,255)" stroke-width="100" stroke="rgb(0,0,0)" />
	<text x="78715" y="97655" fill="transparent" font-size="500" font-family="Verdana" >1</text>
	<polygon points="105620,96655 105620,-6000 155430,-6000 155430,96655 " fill="rgb(255,255,255)" stroke-width="100" stroke="rgb(0,0,0)" />
	<text x="130525" y="97655" fill="transparent" font-size="500" font-family="Verdana" >2</text>
	<polygon points="157430,96655 157430,-6000 207240,-6000 207240,96655 " fill="rgb(255,255,255)" stroke-width="100" stroke="rgb(0,0,0)" />
	<text x="182335" y="97655" fill="transparent" font-size="500" font-family="Verdana" >3</text>
	<polygon points="209240,96655 209240,-6000 259050,-6000 259050,96655 " fill="rgb(255,255,255)" stroke-width="100" stroke="rgb(0,0,0)" />
	<text x="234145" y="97655" fill="transparent" font-size="500" font-family="Verdana" >4</text>
	<polygon points="261050,96655 261050,-6000 310860,-6000 310860,96655 " fill="rgb(255,255,255)" stroke-width="100" stroke="rgb(0,0,0)" />
	<text x="285955" y="97655" fill="transparent" font-size="500" font-family="Verdana" >5</text>
	<polygon points="312860,96655 312860,-6000 362670,-6000 362670,96655 " fill="rgb(255,255,255)" stroke-width="100" stroke="rgb(0,0,0)" />
	<text x="337765" y="97655" fill="transparent" font-size="500" font-family="Verdana" >6</text>
	<polygon points="364670,96655 364670,-6000 414480,-6000 414480,96655 " fill="rgb(255,255,255)" stroke-width="100" stroke="rgb(0,0,0)" />
	<text x="389575" y="97655" fill="transparent" font-size="500" font-family="Verdana" >7</text>
	<polygon points="416480,96655 416480,-6000 466290,-6000 466290,96655 " fill="rgb(255,255,255)" stroke-width="100" stroke="rgb(0,0,0)" />
	<text x="441385" y="97655" fill="transparent" font-size="500" font-family="Verdana" >8</text>
	<polygon points="468290,96655 468290,-6000 518100,-6000 518100,96655 " fill="rgb(255,255,255)" stroke-width="100" stroke="rgb(0,0,0)" />
	<text x="493195" y="97655" fill="transparent" font-size="500" font-family="Verdana" >9</text>
	<polygon points="520100,96655 520100,-6000 569910,-6000 569910,96655 " fill="rgb(255,255,255)" stroke-width="100" stroke="rgb(0,0,0)" />
	<text x="545005" y="97655" fill="transparent" font-size="500" font-family="Verdana" >10</text>
	<polygon points="571910,96655 571910,-6000 621720,-6000 621720,96655 " fill="rgb(255,255,255)" stroke-width="100" stroke="rgb(0,0,0)" />
	<text x="596815" y="97655" fill="transparent" font-size="500" font-family="Verdana" >11</text>
	<polygon points="623720,96655 623720,-6000 673530,-6000 673530,96655 " fill="rgb(255,255,255)" stroke-width="100" stroke="rgb(0,0,0)" />
	<text x="648625" y="97655" fill="transparent" font-size="500" font-family="Verdana" >12</text>
	<polygon points="675530,96655 675530,-6000 725340,-6000 725340,96655 " fill="rgb(255,255,255)" stroke-width="100" stroke="rgb(0,0,0)" />
	<text x="700435" y="97655" fill="transparent" font-size="500" font-family="Verdana" >13</text>
	<polygon points="727340,96655 727340,-6000 777150,-6000 777150,96655 " fill="rgb(255,255,255)" stroke-width="100" stroke="rgb(0,0,0)" />
	<text x="752245" y="97655" fill="transparent" font-size="500" font-family="Verdana" >14</text>
	<polygon points="779150,96655 779150,-6000 828960,-6000 828960,96655 " fill="rgb(255,255,255)" stroke-width="100" stroke="rgb(0,0,0)" />
	<text x="804055" y="97655" fill="transparent" font-size="500" font-family="Verdana" >15</text>
	<circle cx="19795" cy="79365" r="200" fill="rgb(0,0,255)" stroke-width="3" stroke="rgb(0,0,0)" />
	<circle cx="51715" cy="325" r="200" fill="rgb(0,0,255)" stroke-width="3" stroke="rgb(0,0,0)" />
	<circle cx="2035" cy="94085" r="200" fill="rgb(0,0,255)" stroke-width="3" stroke="rgb(0,0,0)" />
	<circle cx="19795" cy="79365" r="200" fill="rgb(255,0,0)" stroke-width="3" stroke="rgb(0,0,0)" />
	<polygon points="17955,80725 17955,78725 19955,78725 19955,80725 " fill="rgb(255,255,0)" stroke-width="1" stroke="rgb(0,0,0)" />
	<polygon points="17955,80725 17955,78725 19955,78725 19955,80725 " fill="rgb(255,255,0)" stroke-width="1" stroke="rgb(0,0,0)" />
	<polygon points="49955,80725 49955,78725 51955,78725 51955,80725 " fill="rgb(255,255,0)" stroke-width="1" stroke="rgb(0,0,0)" />
	<polygon points="49955,78725 49955,76725 51955,76725 51955,78725 " fill="rgb(255,255,0)" stroke-width="1" stroke="rgb(0,0,0)" />
	<polygon points="49955,76725 49955,74725 51955,74725 51955,76725 " fill="rgb(255,255,0)" stroke-width="1" stroke="rgb(0,0,0)" />
	<polygon points="49955,74725 49955,72725 51955,72725 51955,74725 " fill="rgb(255,255,0)" stroke-width="1" stroke="rgb(0,0,0)" />
	<polygon points="49955,72725 49955,70725 51955,70725 51955,72725 " fill="rgb(255,255,0)" stroke-width="1" stroke="rgb(0,0,0)" />
	<polygon points="49955,70725 49955,68725 51955,68725 51955,70725 " fill="rgb(255,255,0)" stroke-width="1" stroke="rgb(0,0,0)" />
	<polygon points="49955,68725 49955,66725 51955,66725 51955,68725 " fill="rgb(255,255,0)" stroke-width="1" stroke="rgb(0,0,0)" />
	<polygon points="49955,66725 49955,64725 51955,64725 51955,66725 " fill="rgb(255,255,0)" stroke-width="1" stroke="rgb(0,0,0)" />
	<polygon points="49955,64725 49955,62725 51955,62725 51955,64725 " fill="rgb(255,255,0)" stroke-width="1" stroke="rgb(0,0,0)" />
	<polygon points="49955,62725 49955,60725 51955,60725 51955,62725 " fill="rgb(255,255,0)" stroke-width="1" stroke="rgb(0,0,0)" />
	<polygon points="49955,60725 49955,58725 51955,58725 51955,60725 " fill="rgb(255,255,0)" stroke-width="1" stroke="rgb(0,0,0)" />
	<polygon points="49955,58725 49955,56725 51955,56725 51955,58725 " fill="rgb(255,255,0)" stroke-width="1" stroke="rgb(0,0,0)" />
	<polygon points="49955,56725 49955,54725 51955,54725 51955,56725 " fill="rgb(255,255,0)" stroke-width="1" stroke="rgb(0,0,0)" />
	<polygon points="49955,54725 49955,52725 51955,52725 51955,54725 " fill="rgb(255,255,0)" stroke-width="1" stroke="rgb(0,0,0)" />
	<polygon points="49955,52725 49955,50725 51955,50725 51955,52725 " fill="rgb(255,255,0)" stroke-width="1" stroke="rgb(0,0,0)" />
	<polygon points="49955,50725 49955,48725 51955,48725 51955,50725 " fill="rgb(255,255,0)" stroke-width="1" stroke="rgb(0,0,0)" />
	<polygon points="49955,48725 49955,46725 51955,46725 51955,48725 " fill="rgb(255,255,0)" stroke-width="1" stroke="rgb(0,0,0)" />
	<polygon points="49955,46725 49955,44725 51955,44725 51955,46725 " fill="rgb(255,255,0)" stroke-width="1" stroke="rgb(0,0,0)" />
	<polygon points="49955,44725 49955,42725 51955,42725 51955,44725 " fill="rgb(255,255,0)" stroke-width="1" stroke="rgb(0,0,0)" />
	<polygon points="49955,42725 49955,40725 51955,40725 51955,42725 " fill="rgb(255,255,0)" stroke-width="1" stroke="rgb(0,0,0)" />
	<polygon points="49955,40725 49955,38725 51955,38725 51955,40725 " fill="rgb(255,255,0)" stroke-width="1" stroke="rgb(0,0,0)" />
	<polygon points="49955,38725 49955,36725 51955,36725 51955,38725 " fill="rgb(255,255,0)" stroke-width="1" stroke="rgb(0,0,0)" />
	<polygon points="49955,36725 49955,34725 51955,34725 51955,36725 " fill="rgb(255,255,0)" stroke-width="1" stroke="rgb(0,0,0)" />
	<polygon points="49955,34725 49955,32725 51955,32725 51955,34725 " fill="rgb(255,255,0)" stroke-width="1" stroke="rgb(0,0,0)" />
	<polygon points="49955,32725 49955,30725 51955,30725 51955,32725 " fill="rgb(255,255,0)" stroke-width="1" stroke="rgb(0,0,0)" />
	<polygon points="49955,30725 49955,28725 51955,28725 51955,30725 " fill="rgb(255,255,0)" stroke-width="1" stroke="rgb(0,0,0)" />
	<polygon points="49955,28725 49955,26725 51955,26725 51955,28725 " fill="rgb(255,255,0)" stroke-width="1" stroke="rgb(0,0,0)" />
	<polygon points="49955,26725 49955,24725 51955,24725 51955,26725 " fill="rgb(255,255,0)" stroke-width="1" stroke="rgb(0,0,0)" />
	<polygon points="49955,24725 49955,22725 51955,22725 51955,24725 " fill="rgb(255,255,0)" stroke-width="1" stroke="rgb(0,0,0)" />
	<polygon points="49955,22725 49955,20725 51955,20725 51955,22725 " fill="rgb(255,255,0)" stroke-width="1" stroke="rgb(0,0,0)" />
	<polygon points="49955,20725 49955,18725 51955,18725 51955,20725 " fill="rgb(255,255,0)" stroke-width="1" stroke="rgb(0,0,0)" />
	<polygon points="49955,18725 49955,16725 51955,16725 51955,18725 " fill="rgb(255,255,0)" stroke-width="1" stroke="rgb(0,0,0)" />
	<polygon points="49955,16725 49955,14725 51955,14725 51955,16725 " fill="rgb(255,255,0)" stroke-width="1" stroke="rgb(0,0,0)" />
	<polygon points="49955,14725 49955,12725 51955,12725 51955,14725 " fill="rgb(255,255,0)" stroke-width="1" stroke="rgb(0,0,0)" />
	<polygon points="49955,12725 49955,10725 51955,10725 51955,12725 " fill="rgb(255,255,0)" stroke-width="1" stroke="rgb(0,0,0)" />
	<polygon points="49955,10725 49955,8725 51955,8725 51955,10725 " fill="rgb(255,255,0)" stroke-width="1" stroke="rgb(0,0,0)" />
	<polygon points="49955,8725 49955,6725 51955,6725 51955,8725 " fill="rgb(255,255,0)" stroke-width="1" stroke="rgb(0,0,0)" />
	<polygon points="49955,6725 49955,4725 51955,4725 51955,6725 " fill="rgb(255,255,0)" stroke-width="1" stroke="rgb(0,0,0)" />
	<polygon points="49955,4725 49955,2725 51955,2725 51955,4725 " fill="rgb(255,255,0)" stroke-width="1" stroke="rgb(0,0,0)" />
	<polygon points="49955,2725 49955,725 51955,725 51955,2725 " fill="rgb(255,255,0)" stroke-width="1" stroke="rgb(0,0,0)" />
	<polygon points="49955,725 49955,-1275 51955,-1275 51955,725 " fill="rgb(255,255,0)" stroke-width="1" stroke="rgb(0,0,0)" />
	<polygon points="17955,80725 17955,78725 19955,78725 19955,80725 " fill="rgb(255,255,0)" stroke-width="1" stroke="rgb(0,0,0)" />
	<polygon points="19955,80725 19955,78725 21955,78725 21955,80725 " fill="rgb(255,255,0)" stroke-width="1" stroke="rgb(0,0,0)" />
	<polygon points="21955,80725 21955,78725 23955,78725 23955,80725 " fill="rgb(255,255,0)" stroke-width="1" stroke="rgb(0,0,0)" />
	<polygon points="23955,80725 23955,78725 25955,78725 25955,80725 " fill="rgb(255,255,0)" stroke-width="1" stroke="rgb(0,0,0)" />
	<polygon points="25955,80725 25955,78725 27955,78725 27955,80725 " fill="rgb(255,255,0)" stroke-width="1" stroke="rgb(0,0,0)" />
	<polygon points="27955,80725 27955,78725 29955,78725 29955,80725 " fill="rgb(255,255,0)" stroke-width="1" stroke="rgb(0,0,0)" />
	<polygon points="29955,80725 29955,78725 31955,78725 31955,80725 " fill="rgb(255,255,0)" stroke-width="1" stroke="rgb(0,0,0)" />
	<polygon points="31955,80725 31955,78725 33955,78725 33955,80725 " fill="rgb(255,255,0)" stroke-width="1" stroke="rgb(0,0,0)" />
	<polygon points="33955,80725 33955,78725 35955,78725 35955,80725 " fill="rgb(255,255,0)" stroke-width="1" stroke="rgb(0,0,0)" />
	<polygon points="35955,80725 35955,78725 37955,78725 37955,80725 " fill="rgb(255,255,0)" stroke-width="1" stroke="rgb(0,0,0)" />
	<polygon points="37955,80725 37955,78725 39955,78725 39955,80725 " fill="rgb(255,255,0)" stroke-width="1" stroke="rgb(0,0,0)" />
	<polygon points="39955,80725 39955,78725 41955,78725 41955,80725 " fill="rgb(255,255,0)" stroke-width="1" stroke="rgb(0,0,0)" />
	<polygon points="41955,80725 41955,78725 43955,78725 43955,80725 " fill="rgb(255,255,0)" stroke-width="1" stroke="rgb(0,0,0)" />
	<polygon points="43955,80725 43955,78725 45955,78725 45955,80725 " fill="rgb(255,255,0)" stroke-width="1" stroke="rgb(0,0,0)" />
	<polygon points="45955,80725 45955,78725 47955,78725 47955,80725 " fill="rgb(255,255,0)" stroke-width="1" stroke="rgb(0,0,0)" />
	<polygon points="47955,80725 47955,78725 49955,78725 49955,80725 " fill="rgb(255,255,0)" stroke-width="1" stroke="rgb(0,0,0)" />
	<polygon points="49955,80725 49955,78725 51955,78725 51955,80725 " fill="rgb(255,255,0)" stroke-width="1" stroke="rgb(0,0,0)" />
	<polygon points="1955,94725 1955,92725 3955,92725 3955,94725 " fill="rgb(255,255,0)" stroke-width="1" stroke="rgb(0,0,0)" />
	<polygon points="1955,92725 1955,90725 3955,90725 3955,92725 " fill="rgb(255,255,0)" stroke-width="1" stroke="rgb(0,0,0)" />
	<polygon points="1955,90725 1955,88725 3955,88725 3955,90725 " fill="rgb(255,255,0)" stroke-width="1" stroke="rgb(0,0,0)" />
	<polygon points="1955,88725 1955,86725 3955,86725 3955,88725 " fill="rgb(255,255,0)" stroke-width="1" stroke="rgb(0,0,0)" />
	<polygon points="1955,86725 1955,84725 3955,84725 3955,86725 " fill="rgb(255,255,0)" stroke-width="1" stroke="rgb(0,0,0)" />
	<polygon points="1955,84725 1955,82725 3955,82725 3955,84725 " fill="rgb(255,255,0)" stroke-width="1" stroke="rgb(0,0,0)" />
	<polygon points="1955,82725 1955,80725 3955,80725 3955,82725 " fill="rgb(255,255,0)" stroke-width="1" stroke="rgb(0,0,0)" />
	<polygon points="1955,80725 1955,78725 3955,78725 3955,80725 " fill="rgb(255,255,0)" stroke-width="1" stroke="rgb(0,0,0)" />
	<polygon points="1955,80725 1955,78725 3955,78725 3955,80725 " fill="rgb(255,255,0)" stroke-width="1" stroke="rgb(0,0,0)" />
	<polygon points="3955,80725 3955,78725 5955,78725 5955,80725 " fill="rgb(255,255,0)" stroke-width="1" stroke="rgb(0,0,0)" />
	<polygon points="5955,80725 5955,78725 7955,78725 7955,80725 " fill="rgb(255,255,0)" stroke-width="1" stroke="rgb(0,0,0)" />
	<polygon points="7955,80725 7955,78725 9955,78725 9955,80725 " fill="rgb(255,255,0)" stroke-width="1" stroke="rgb(0,0,0)" />
	<polygon points="9955,80725 9955,78725 11955,78725 11955,80725 " fill="rgb(255,255,0)" stroke-width="1" stroke="rgb(0,0,0)" />
	<polygon points="11955,80725 11955,78725 13955,78725 13955,80725 " fill="rgb(255,255,0)" stroke-width="1" stroke="rgb(0,0,0)" />
	<polygon points="13955,80725 13955,78725 15955,78725 15955,80725 " fill="rgb(255,255,0)" stroke-width="1" stroke="rgb(0,0,0)" />
	<polygon points="15955,80725 15955,78725 17955,78725 17955,80725 " fill="rgb(255,255,0)" stroke-width="1" stroke="rgb(0,0,0)" />
	<polygon points="17955,80725 17955,78725 19955,78725 19955,80725 " fill="rgb(255,255,0)" stroke-width="1" stroke="rgb(0,0,0)" />
	<polygon points="19775,79930 19775,79655 19870,79655 19870,79930 " fill="rgb(255,165,0)" stroke-width="3" stroke="rgb(0,0,0)" />
	<polygon points="51715,275 51715,0 51810,0 51810,275 " fill="rgb(255,165,0)" stroke-width="3" stroke="rgb(0,0,0)" />
	<polygon points="2000,94655 2000,94355 2070,94355 2070,94655 " fill="rgb(255,165,0)" stroke-width="3" stroke="rgb(0,0,0)" />
</svg>
