<?xml version="1.0" standalone="no" ?>
<!DOCTYPE svg PUBLIC "-//W3C//DTD SVG 1.1//EN" "http://www.w3.org/Graphics/SVG/1.1/DTD/svg11.dtd">
<svg width="1.18136e+06px" height="66430px" xmlns="http://www.w3.org/2000/svg" version="1.1" >
	<polygon points="2000,64430 2000,-6000 75835,-6000 75835,64430 " fill="rgb(255,255,255)" stroke-width="100" stroke="rgb(0,0,0)" />
	<text x="38918" y="65430" fill="transparent" font-size="500" font-family="Verdana" >0</text>
	<polygon points="77835,64430 77835,-6000 151670,-6000 151670,64430 " fill="rgb(255,255,255)" stroke-width="100" stroke="rgb(0,0,0)" />
	<text x="114753" y="65430" fill="transparent" font-size="500" font-family="Verdana" >1</text>
	<polygon points="153670,64430 153670,-6000 227505,-6000 227505,64430 " fill="rgb(255,255,255)" stroke-width="100" stroke="rgb(0,0,0)" />
	<text x="190588" y="65430" fill="transparent" font-size="500" font-family="Verdana" >2</text>
	<polygon points="229505,64430 229505,-6000 303340,-6000 303340,64430 " fill="rgb(255,255,255)" stroke-width="100" stroke="rgb(0,0,0)" />
	<text x="266423" y="65430" fill="transparent" font-size="500" font-family="Verdana" >3</text>
	<polygon points="305340,64430 305340,-6000 379175,-6000 379175,64430 " fill="rgb(255,255,255)" stroke-width="100" stroke="rgb(0,0,0)" />
	<text x="342258" y="65430" fill="transparent" font-size="500" font-family="Verdana" >4</text>
	<polygon points="381175,64430 381175,-6000 455010,-6000 455010,64430 " fill="rgb(255,255,255)" stroke-width="100" stroke="rgb(0,0,0)" />
	<text x="418093" y="65430" fill="transparent" font-size="500" font-family="Verdana" >5</text>
	<polygon points="457010,64430 457010,-6000 530845,-6000 530845,64430 " fill="rgb(255,255,255)" stroke-width="100" stroke="rgb(0,0,0)" />
	<text x="493928" y="65430" fill="transparent" font-size="500" font-family="Verdana" >6</text>
	<polygon points="532845,64430 532845,-6000 606680,-6000 606680,64430 " fill="rgb(255,255,255)" stroke-width="100" stroke="rgb(0,0,0)" />
	<text x="569763" y="65430" fill="transparent" font-size="500" font-family="Verdana" >7</text>
	<polygon points="608680,64430 608680,-6000 682515,-6000 682515,64430 " fill="rgb(255,255,255)" stroke-width="100" stroke="rgb(0,0,0)" />
	<text x="645598" y="65430" fill="transparent" font-size="500" font-family="Verdana" >8</text>
	<polygon points="684515,64430 684515,-6000 758350,-6000 758350,64430 " fill="rgb(255,255,255)" stroke-width="100" stroke="rgb(0,0,0)" />
	<text x="721433" y="65430" fill="transparent" font-size="500" font-family="Verdana" >9</text>
	<polygon points="760350,64430 760350,-6000 834185,-6000 834185,64430 " fill="rgb(255,255,255)" stroke-width="100" stroke="rgb(0,0,0)" />
	<text x="797268" y="65430" fill="transparent" font-size="500" font-family="Verdana" >10</text>
	<polygon points="836185,64430 836185,-6000 910020,-6000 910020,64430 " fill="rgb(255,255,255)" stroke-width="100" stroke="rgb(0,0,0)" />
	<text x="873103" y="65430" fill="transparent" font-size="500" font-family="Verdana" >11</text>
	<polygon points="912020,64430 912020,-6000 985855,-6000 985855,64430 " fill="rgb(255,255,255)" stroke-width="100" stroke="rgb(0,0,0)" />
	<text x="948938" y="65430" fill="transparent" font-size="500" font-family="Verdana" >12</text>
	<polygon points="987855,64430 987855,-6000 1.06169e+06,-6000 1.06169e+06,64430 " fill="rgb(255,255,255)" stroke-width="100" stroke="rgb(0,0,0)" />
	<text x="1.02477e+06" y="65430" fill="transparent" font-size="500" font-family="Verdana" >13</text>
	<polygon points="1.06369e+06,64430 1.06369e+06,-6000 1.13752e+06,-6000 1.13752e+06,64430 " fill="rgb(255,255,255)" stroke-width="100" stroke="rgb(0,0,0)" />
	<text x="1.10061e+06" y="65430" fill="transparent" font-size="500" font-family="Verdana" >14</text>
	<polygon points="1.13952e+06,64430 1.13952e+06,-6000 1.21336e+06,-6000 1.21336e+06,64430 " fill="rgb(255,255,255)" stroke-width="100" stroke="rgb(0,0,0)" />
	<text x="1.17644e+06" y="65430" fill="transparent" font-size="500" font-family="Verdana" >15</text>
	<circle cx="35935" cy="61765" r="200" fill="rgb(0,0,255)" stroke-width="3" stroke="rgb(0,0,0)" />
	<circle cx="2035" cy="18085" r="200" fill="rgb(0,0,255)" stroke-width="3" stroke="rgb(0,0,0)" />
	<circle cx="75715" cy="12165" r="200" fill="rgb(0,0,255)" stroke-width="3" stroke="rgb(0,0,0)" />
	<circle cx="16015" cy="325" r="200" fill="rgb(0,0,255)" stroke-width="3" stroke="rgb(0,0,0)" />
	<circle cx="35935" cy="18085" r="200" fill="rgb(255,0,0)" stroke-width="3" stroke="rgb(0,0,0)" />
	<circle cx="16015" cy="18085" r="200" fill="rgb(255,0,0)" stroke-width="3" stroke="rgb(0,0,0)" />
	<polygon points="35155,62725 35155,60725 37155,60725 37155,62725 " fill="rgb(255,255,0)" stroke-width="1" stroke="rgb(0,0,0)" />
	<polygon points="35155,60725 35155,58725 37155,58725 37155,60725 " fill="rgb(255,255,0)" stroke-width="1" stroke="rgb(0,0,0)" />
	<polygon points="35155,58725 35155,56725 37155,56725 37155,58725 " fill="rgb(255,255,0)" stroke-width="1" stroke="rgb(0,0,0)" />
	<polygon points="35155,56725 35155,54725 37155,54725 37155,56725 " fill="rgb(255,255,0)" stroke-width="1" stroke="rgb(0,0,0)" />
	<polygon points="35155,54725 35155,52725 37155,52725 37155,54725 " fill="rgb(255,255,0)" stroke-width="1" stroke="rgb(0,0,0)" />
	<polygon points="35155,52725 35155,50725 37155,50725 37155,52725 " fill="rgb(255,255,0)" stroke-width="1" stroke="rgb(0,0,0)" />
	<polygon points="35155,50725 35155,48725 37155,48725 37155,50725 " fill="rgb(255,255,0)" stroke-width="1" stroke="rgb(0,0,0)" />
	<polygon points="35155,48725 35155,46725 37155,46725 37155,48725 " fill="rgb(255,255,0)" stroke-width="1" stroke="rgb(0,0,0)" />
	<polygon points="35155,46725 35155,44725 37155,44725 37155,46725 " fill="rgb(255,255,0)" stroke-width="1" stroke="rgb(0,0,0)" />
	<polygon points="35155,44725 35155,42725 37155,42725 37155,44725 " fill="rgb(255,255,0)" stroke-width="1" stroke="rgb(0,0,0)" />
	<polygon points="35155,42725 35155,40725 37155,40725 37155,42725 " fill="rgb(255,255,0)" stroke-width="1" stroke="rgb(0,0,0)" />
	<polygon points="35155,40725 35155,38725 37155,38725 37155,40725 " fill="rgb(255,255,0)" stroke-width="1" stroke="rgb(0,0,0)" />
	<polygon points="35155,38725 35155,36725 37155,36725 37155,38725 " fill="rgb(255,255,0)" stroke-width="1" stroke="rgb(0,0,0)" />
	<polygon points="35155,36725 35155,34725 37155,34725 37155,36725 " fill="rgb(255,255,0)" stroke-width="1" stroke="rgb(0,0,0)" />
	<polygon points="35155,34725 35155,32725 37155,32725 37155,34725 " fill="rgb(255,255,0)" stroke-width="1" stroke="rgb(0,0,0)" />
	<polygon points="35155,32725 35155,30725 37155,30725 37155,32725 " fill="rgb(255,255,0)" stroke-width="1" stroke="rgb(0,0,0)" />
	<polygon points="35155,30725 35155,28725 37155,28725 37155,30725 " fill="rgb(255,255,0)" stroke-width="1" stroke="rgb(0,0,0)" />
	<polygon points="35155,28725 35155,26725 37155,26725 37155,28725 " fill="rgb(255,255,0)" stroke-width="1" stroke="rgb(0,0,0)" />
	<polygon points="35155,26725 35155,24725 37155,24725 37155,26725 " fill="rgb(255,255,0)" stroke-width="1" stroke="rgb(0,0,0)" />
	<polygon points="35155,24725 35155,22725 37155,22725 37155,24725 " fill="rgb(255,255,0)" stroke-width="1" stroke="rgb(0,0,0)" />
	<polygon points="35155,22725 35155,20725 37155,20725 37155,22725 " fill="rgb(255,255,0)" stroke-width="1" stroke="rgb(0,0,0)" />
	<polygon points="35155,20725 35155,18725 37155,18725 37155,20725 " fill="rgb(255,255,0)" stroke-width="1" stroke="rgb(0,0,0)" />
	<polygon points="35155,18725 35155,16725 37155,16725 37155,18725 " fill="rgb(255,255,0)" stroke-width="1" stroke="rgb(0,0,0)" />
	<polygon points="35155,18725 35155,16725 37155,16725 37155,18725 " fill="rgb(255,255,0)" stroke-width="1" stroke="rgb(0,0,0)" />
	<polygon points="1155,18725 1155,16725 3155,16725 3155,18725 " fill="rgb(255,255,0)" stroke-width="1" stroke="rgb(0,0,0)" />
	<polygon points="1155,18725 1155,16725 3155,16725 3155,18725 " fill="rgb(255,255,0)" stroke-width="1" stroke="rgb(0,0,0)" />
	<polygon points="3155,18725 3155,16725 5155,16725 5155,18725 " fill="rgb(255,255,0)" stroke-width="1" stroke="rgb(0,0,0)" />
	<polygon points="5155,18725 5155,16725 7155,16725 7155,18725 " fill="rgb(255,255,0)" stroke-width="1" stroke="rgb(0,0,0)" />
	<polygon points="7155,18725 7155,16725 9155,16725 9155,18725 " fill="rgb(255,255,0)" stroke-width="1" stroke="rgb(0,0,0)" />
	<polygon points="9155,18725 9155,16725 11155,16725 11155,18725 " fill="rgb(255,255,0)" stroke-width="1" stroke="rgb(0,0,0)" />
	<polygon points="11155,18725 11155,16725 13155,16725 13155,18725 " fill="rgb(255,255,0)" stroke-width="1" stroke="rgb(0,0,0)" />
	<polygon points="13155,18725 13155,16725 15155,16725 15155,18725 " fill="rgb(255,255,0)" stroke-width="1" stroke="rgb(0,0,0)" />
	<polygon points="15155,18725 15155,16725 17155,16725 17155,18725 " fill="rgb(255,255,0)" stroke-width="1" stroke="rgb(0,0,0)" />
	<polygon points="75155,18725 75155,16725 77155,16725 77155,18725 " fill="rgb(255,255,0)" stroke-width="1" stroke="rgb(0,0,0)" />
	<polygon points="75155,16725 75155,14725 77155,14725 77155,16725 " fill="rgb(255,255,0)" stroke-width="1" stroke="rgb(0,0,0)" />
	<polygon points="75155,14725 75155,12725 77155,12725 77155,14725 " fill="rgb(255,255,0)" stroke-width="1" stroke="rgb(0,0,0)" />
	<polygon points="75155,12725 75155,10725 77155,10725 77155,12725 " fill="rgb(255,255,0)" stroke-width="1" stroke="rgb(0,0,0)" />
	<polygon points="35155,18725 35155,16725 37155,16725 37155,18725 " fill="rgb(255,255,0)" stroke-width="1" stroke="rgb(0,0,0)" />
	<polygon points="37155,18725 37155,16725 39155,16725 39155,18725 " fill="rgb(255,255,0)" stroke-width="1" stroke="rgb(0,0,0)" />
	<polygon points="39155,18725 39155,16725 41155,16725 41155,18725 " fill="rgb(255,255,0)" stroke-width="1" stroke="rgb(0,0,0)" />
	<polygon points="41155,18725 41155,16725 43155,16725 43155,18725 " fill="rgb(255,255,0)" stroke-width="1" stroke="rgb(0,0,0)" />
	<polygon points="43155,18725 43155,16725 45155,16725 45155,18725 " fill="rgb(255,255,0)" stroke-width="1" stroke="rgb(0,0,0)" />
	<polygon points="45155,18725 45155,16725 47155,16725 47155,18725 " fill="rgb(255,255,0)" stroke-width="1" stroke="rgb(0,0,0)" />
	<polygon points="47155,18725 47155,16725 49155,16725 49155,18725 " fill="rgb(255,255,0)" stroke-width="1" stroke="rgb(0,0,0)" />
	<polygon points="49155,18725 49155,16725 51155,16725 51155,18725 " fill="rgb(255,255,0)" stroke-width="1" stroke="rgb(0,0,0)" />
	<polygon points="51155,18725 51155,16725 53155,16725 53155,18725 " fill="rgb(255,255,0)" stroke-width="1" stroke="rgb(0,0,0)" />
	<polygon points="53155,18725 53155,16725 55155,16725 55155,18725 " fill="rgb(255,255,0)" stroke-width="1" stroke="rgb(0,0,0)" />
	<polygon points="55155,18725 55155,16725 57155,16725 57155,18725 " fill="rgb(255,255,0)" stroke-width="1" stroke="rgb(0,0,0)" />
	<polygon points="57155,18725 57155,16725 59155,16725 59155,18725 " fill="rgb(255,255,0)" stroke-width="1" stroke="rgb(0,0,0)" />
	<polygon points="59155,18725 59155,16725 61155,16725 61155,18725 " fill="rgb(255,255,0)" stroke-width="1" stroke="rgb(0,0,0)" />
	<polygon points="61155,18725 61155,16725 63155,16725 63155,18725 " fill="rgb(255,255,0)" stroke-width="1" stroke="rgb(0,0,0)" />
	<polygon points="63155,18725 63155,16725 65155,16725 65155,18725 " fill="rgb(255,255,0)" stroke-width="1" stroke="rgb(0,0,0)" />
	<polygon points="65155,18725 65155,16725 67155,16725 67155,18725 " fill="rgb(255,255,0)" stroke-width="1" stroke="rgb(0,0,0)" />
	<polygon points="67155,18725 67155,16725 69155,16725 69155,18725 " fill="rgb(255,255,0)" stroke-width="1" stroke="rgb(0,0,0)" />
	<polygon points="69155,18725 69155,16725 71155,16725 71155,18725 " fill="rgb(255,255,0)" stroke-width="1" stroke="rgb(0,0,0)" />
	<polygon points="71155,18725 71155,16725 73155,16725 73155,18725 " fill="rgb(255,255,0)" stroke-width="1" stroke="rgb(0,0,0)" />
	<polygon points="73155,18725 73155,16725 75155,16725 75155,18725 " fill="rgb(255,255,0)" stroke-width="1" stroke="rgb(0,0,0)" />
	<polygon points="75155,18725 75155,16725 77155,16725 77155,18725 " fill="rgb(255,255,0)" stroke-width="1" stroke="rgb(0,0,0)" />
	<polygon points="15155,18725 15155,16725 17155,16725 17155,18725 " fill="rgb(255,255,0)" stroke-width="1" stroke="rgb(0,0,0)" />
	<polygon points="15155,16725 15155,14725 17155,14725 17155,16725 " fill="rgb(255,255,0)" stroke-width="1" stroke="rgb(0,0,0)" />
	<polygon points="15155,14725 15155,12725 17155,12725 17155,14725 " fill="rgb(255,255,0)" stroke-width="1" stroke="rgb(0,0,0)" />
	<polygon points="15155,12725 15155,10725 17155,10725 17155,12725 " fill="rgb(255,255,0)" stroke-width="1" stroke="rgb(0,0,0)" />
	<polygon points="15155,10725 15155,8725 17155,8725 17155,10725 " fill="rgb(255,255,0)" stroke-width="1" stroke="rgb(0,0,0)" />
	<polygon points="15155,8725 15155,6725 17155,6725 17155,8725 " fill="rgb(255,255,0)" stroke-width="1" stroke="rgb(0,0,0)" />
	<polygon points="15155,6725 15155,4725 17155,4725 17155,6725 " fill="rgb(255,255,0)" stroke-width="1" stroke="rgb(0,0,0)" />
	<polygon points="15155,4725 15155,2725 17155,2725 17155,4725 " fill="rgb(255,255,0)" stroke-width="1" stroke="rgb(0,0,0)" />
	<polygon points="15155,2725 15155,725 17155,725 17155,2725 " fill="rgb(255,255,0)" stroke-width="1" stroke="rgb(0,0,0)" />
	<polygon points="15155,725 15155,-1275 17155,-1275 17155,725 " fill="rgb(255,255,0)" stroke-width="1" stroke="rgb(0,0,0)" />
	<polygon points="15155,18725 15155,16725 17155,16725 17155,18725 " fill="rgb(255,255,0)" stroke-width="1" stroke="rgb(0,0,0)" />
	<polygon points="35155,18725 35155,16725 37155,16725 37155,18725 " fill="rgb(255,255,0)" stroke-width="1" stroke="rgb(0,0,0)" />
	<polygon points="15155,18725 15155,16725 17155,16725 17155,18725 " fill="rgb(255,255,0)" stroke-width="1" stroke="rgb(0,0,0)" />
	<polygon points="17155,18725 17155,16725 19155,16725 19155,18725 " fill="rgb(255,255,0)" stroke-width="1" stroke="rgb(0,0,0)" />
	<polygon points="19155,18725 19155,16725 21155,16725 21155,18725 " fill="rgb(255,255,0)" stroke-width="1" stroke="rgb(0,0,0)" />
	<polygon points="21155,18725 21155,16725 23155,16725 23155,18725 " fill="rgb(255,255,0)" stroke-width="1" stroke="rgb(0,0,0)" />
	<polygon points="23155,18725 23155,16725 25155,16725 25155,18725 " fill="rgb(255,255,0)" stroke-width="1" stroke="rgb(0,0,0)" />
	<polygon points="25155,18725 25155,16725 27155,16725 27155,18725 " fill="rgb(255,255,0)" stroke-width="1" stroke="rgb(0,0,0)" />
	<polygon points="27155,18725 27155,16725 29155,16725 29155,18725 " fill="rgb(255,255,0)" stroke-width="1" stroke="rgb(0,0,0)" />
	<polygon points="29155,18725 29155,16725 31155,16725 31155,18725 " fill="rgb(255,255,0)" stroke-width="1" stroke="rgb(0,0,0)" />
	<polygon points="31155,18725 31155,16725 33155,16725 33155,18725 " fill="rgb(255,255,0)" stroke-width="1" stroke="rgb(0,0,0)" />
	<polygon points="33155,18725 33155,16725 35155,16725 35155,18725 " fill="rgb(255,255,0)" stroke-width="1" stroke="rgb(0,0,0)" />
	<polygon points="35155,18725 35155,16725 37155,16725 37155,18725 " fill="rgb(255,255,0)" stroke-width="1" stroke="rgb(0,0,0)" />
	<polygon points="35915,62430 35915,61955 35985,61955 35985,62430 " fill="rgb(255,165,0)" stroke-width="3" stroke="rgb(0,0,0)" />
	<polygon points="75710,12065 75710,11540 75835,11540 75835,12065 " fill="rgb(255,165,0)" stroke-width="3" stroke="rgb(0,0,0)" />
	<polygon points="2000,17975 2000,17500 2070,17500 2070,17975 " fill="rgb(255,165,0)" stroke-width="3" stroke="rgb(0,0,0)" />
	<polygon points="16005,275 16005,0 16100,0 16100,275 " fill="rgb(255,165,0)" stroke-width="3" stroke="rgb(0,0,0)" />
</svg>
